# xmcd CD database file generated by OrangeCD 5.2
#
# Track frame offsets:
#	150
#	15662
#	36372
#	56202
#	69592
#	80535
#	93252
#	108260
#	125870
#	141457
#	154675
#	168705
#
# Disc length: 2490 seconds
#
# Revision: 1
# Processed by: cddbd v1.5.1PL0 Copyright (c) Steve Scherf et al.
# Submitted via: OrangeCD 5.2
#
DISCID=ab09b80c
DTITLE=Amazing Rhythm Aces - Stacked Deck
DYEAR=2000
DGENRE=Southern Rock
TTITLE0=Third Rate Romance
TTITLE1=The Ella B
TTITLE2=Life's Railway to Heaven
TTITLE3=The Beautiful Lie
TTITLE4=Hit the Nail on the Head
TTITLE5=Who Will the Next Fool Be
TTITLE6=Amazing Grace (Used to Be Her Favorite Song)
TTITLE7=Anything You Want
TTITLE8=My Tears Still Flow
TTITLE9=Emma-Jean
TTITLE10=Why Can't I Be Satisfied
TTITLE11=King of the Cowboys
EXTD=william hale
EXTT0=
EXTT1=
EXTT2=
EXTT3=
EXTT4=
EXTT5=
EXTT6=
EXTT7=
EXTT8=
EXTT9=
EXTT10=
EXTT11=
PLAYORDER=
